<svg width="136" height="43" viewBox="0 0 136 43" fill="none" xmlns="http://www.w3.org/2000/svg">
<g clip-path="url(#clip0_49704_3)">
<path d="M30.7366 13.9787L25.2144 19.501L27.3525 21.6391L32.8748 16.1169L30.7366 13.9787Z" fill="#66C05D"/>
<path d="M19.5638 25.1634L14.0415 30.6857L16.1797 32.8238L21.7019 27.3016L19.5638 25.1634Z" fill="#66C05D"/>
<path d="M27.2224 10.4834L21.7001 16.0056L23.8383 18.1438L29.3605 12.6215L27.2224 10.4834Z" fill="#66C05D"/>
<path d="M16.0649 21.6529L10.5426 27.1752L12.6807 29.3133L18.203 23.7911L16.0649 21.6529Z" fill="#66C05D"/>
<path d="M12.6687 13.9787L10.5305 16.1168L16.0528 21.6391L18.1909 19.5009L12.6687 13.9787Z" fill="#66C05D"/>
<path d="M16.1794 10.4799L14.0413 12.618L19.5635 18.1403L21.7017 16.0022L16.1794 10.4799Z" fill="#66C05D"/>
<path d="M27.3492 21.6374L25.2111 23.7755L30.7333 29.2978L32.8714 27.1596L27.3492 21.6374Z" fill="#66C05D"/>
<path d="M23.8537 25.1518L21.7156 27.2899L27.2378 32.8122L29.376 30.674L23.8537 25.1518Z" fill="#66C05D"/>
<path d="M29.3658 34.9609L27.2339 32.829L21.7084 38.3545L16.1829 32.829L14.051 34.9609L21.7084 42.6183L29.3658 34.9609Z" fill="#EFEFEF"/>
<path d="M10.5268 16.1218L8.3949 13.9899L0.737457 21.6473L8.3949 29.3047L10.5268 27.1728L5.00126 21.6473L10.5268 16.1218Z" fill="#EFEFEF"/>
<path d="M35.0219 13.9899L32.89 16.1218L38.4156 21.6473L32.89 27.1728L35.0219 29.3047L42.6794 21.6473L35.0219 13.9899Z" fill="#EFEFEF"/>
<path d="M27.2339 10.4657L29.3658 8.33383L21.7084 0.676392L14.051 8.33383L16.1829 10.4657L21.7084 4.94019L27.2339 10.4657Z" fill="#EFEFEF"/>
</g>
<path d="M59.642 23.7733H56.1814L56.1629 21.8671H59.0683C59.5804 21.8671 59.9998 21.8023 60.3268 21.6728C60.6537 21.5371 60.8974 21.3428 61.0578 21.0898C61.2243 20.8308 61.3076 20.5161 61.3076 20.146C61.3076 19.7265 61.2274 19.3873 61.067 19.1282C60.9128 18.8691 60.6691 18.6809 60.336 18.5637C60.0091 18.4465 59.5865 18.3879 59.0683 18.3879H57.1437V29.686H54.3677V16.2134H59.0683C59.8518 16.2134 60.5519 16.2875 61.1688 16.4355C61.7919 16.5836 62.3193 16.8087 62.7511 17.111C63.1829 17.4133 63.5129 17.7957 63.7412 18.2584C63.9694 18.7149 64.0836 19.2577 64.0836 19.8869C64.0836 20.4421 63.9571 20.9541 63.7042 21.423C63.4574 21.8918 63.0657 22.2743 62.529 22.5704C61.9985 22.8665 61.3045 23.0299 60.4471 23.0608L59.642 23.7733ZM59.5217 29.686H55.4226L56.5052 27.5208H59.5217C60.0091 27.5208 60.407 27.4437 60.7154 27.2895C61.0238 27.1291 61.2521 26.9132 61.4001 26.6417C61.5482 26.3703 61.6222 26.0588 61.6222 25.7072C61.6222 25.3124 61.5544 24.97 61.4186 24.6801C61.2891 24.3901 61.0794 24.1681 60.7894 24.0138C60.4995 23.8535 60.117 23.7733 59.642 23.7733H56.9679L56.9864 21.8671H60.3175L60.956 22.6166C61.7764 22.6043 62.4365 22.7492 62.9362 23.0515C63.442 23.3476 63.809 23.7332 64.0373 24.2082C64.2717 24.6832 64.3889 25.1921 64.3889 25.7349C64.3889 26.5986 64.2008 27.3265 63.8245 27.9187C63.4482 28.5047 62.8961 28.9458 62.1682 29.2419C61.4464 29.538 60.5643 29.686 59.5217 29.686ZM77.4063 27.5208V29.686H70.2351V27.5208H77.4063ZM71.1419 16.2134V29.686H68.3659V16.2134H71.1419ZM76.4717 21.7006V23.8103H70.2351V21.7006H76.4717ZM77.397 16.2134V18.3879H70.2351V16.2134H77.397ZM86.3985 18.5175L82.7342 29.686H79.7825L84.7884 16.2134H86.6668L86.3985 18.5175ZM89.4428 29.686L85.7693 18.5175L85.4732 16.2134H87.3701L92.4038 29.686H89.4428ZM89.2762 24.6708V26.8453H82.1605V24.6708H89.2762ZM102.821 16.2134H105.588V25.115C105.588 26.1513 105.366 27.0242 104.921 27.7336C104.483 28.443 103.876 28.9766 103.099 29.3344C102.328 29.6922 101.439 29.8711 100.434 29.8711C99.4282 29.8711 98.5337 29.6922 97.7503 29.3344C96.973 28.9766 96.3623 28.443 95.9181 27.7336C95.4802 27.0242 95.2612 26.1513 95.2612 25.115V16.2134H98.0371V25.115C98.0371 25.7195 98.1327 26.213 98.324 26.5955C98.5152 26.9779 98.7897 27.2586 99.1475 27.4375C99.5115 27.6164 99.9402 27.7059 100.434 27.7059C100.94 27.7059 101.368 27.6164 101.72 27.4375C102.078 27.2586 102.349 26.9779 102.534 26.5955C102.725 26.213 102.821 25.7195 102.821 25.115V16.2134ZM115.792 16.2134V29.686H113.025V16.2134H115.792ZM119.938 16.2134V18.3879H108.945V16.2134H119.938ZM125.414 16.2134L128.226 22.3575L131.039 16.2134H134.065L129.633 24.7819V29.686H126.82V24.7819L122.378 16.2134H125.414Z" fill="#66C05D"/>
<defs>
<clipPath id="clip0_49704_3">
<rect width="41.9419" height="41.9419" fill="white" transform="translate(0.737457 0.676392)"/>
</clipPath>
</defs>
</svg>
